<svg xmlns="http://www.w3.org/2000/svg" xml:space="preserve" style="fill-rule:evenodd;clip-rule:evenodd;stroke-linejoin:round;stroke-miterlimit:2" viewBox="0 0 100 100">
  <rect width="100" height="100" rx="20" ry="20" style="fill:#3D8DDC"/>
  <g transform="translate(24, 24) scale(0.52)">
    <path d="M41.667 75q-3.437 0-5.885-2.448t-2.448-5.885v-5.208q-5.937-4.062-9.219-10.417T20.834 37.5q0-12.187 8.49-20.677t20.677-8.49 20.677 8.49 8.49 20.677q0 7.187-3.281 13.49-3.281 6.302-9.219 10.469v5.208q0 3.438-2.448 5.885Q61.772 75 58.335 75zm0 16.667q-1.771 0-2.969-1.198T37.5 87.5s-1.37-3.938 0-4.167c4.167-.694 20.833-.694 25 0 1.37.228 0 4.167 0 4.167q0 1.771-1.198 2.969t-2.969 1.198H41.666Z" style="fill:#e7ff00;fill-rule:nonzero;stroke:#fdff00;stroke-width:4.03px"/>
  </g>
</svg>